# Blender 5.1.1
# www.blender.org
mtllib mushroom2.mtl
g mushroom2_Mesh
v -0.058881 0.000000 0.000000
v -0.041635 0.000000 0.041635
v -0.000000 0.000000 0.058881
v 0.041635 0.000000 0.041635
v 0.058881 0.000000 0.000000
v 0.041635 0.000000 -0.041635
v -0.000000 0.000000 -0.058881
v -0.041635 0.000000 -0.041635
v -0.065480 0.017231 0.000000
v -0.046301 0.017231 0.046301
v -0.000000 0.017231 0.065480
v 0.046301 0.017231 0.046301
v 0.065480 0.017231 0.000000
v 0.046301 0.017231 -0.046301
v -0.000000 0.017231 -0.065479
v -0.046301 0.017231 -0.046301
v -0.061287 0.333863 0.000000
v -0.043336 0.333863 0.043336
v -0.000000 0.333863 0.061287
v 0.043336 0.333863 0.043336
v 0.061287 0.333863 0.000000
v 0.043336 0.333863 -0.043336
v 0.000000 0.333863 -0.061287
v -0.043336 0.333863 -0.043336
v -0.071806 0.382110 0.000000
v -0.050774 0.382110 0.050774
v -0.000000 0.382110 0.071806
v 0.050774 0.382110 0.050774
v 0.071806 0.382110 0.000000
v 0.050774 0.382110 -0.050774
v 0.000000 0.382110 -0.071806
v -0.050774 0.382110 -0.050774
v -0.040935 0.133826 -0.040935
v 0.057890 0.133826 0.000000
v -0.057890 0.133826 0.000000
v -0.040935 0.133826 0.040935
v 0.040935 0.133826 -0.040935
v -0.000000 0.133826 0.057890
v -0.000000 0.133826 -0.057890
v 0.040935 0.133826 0.040935
v -0.237848 0.368210 0.000000
v -0.219743 0.368210 0.091021
v -0.168184 0.368210 0.168184
v -0.091021 0.368210 0.219743
v -0.000000 0.368210 0.237848
v 0.091021 0.368210 0.219743
v 0.168184 0.368210 0.168184
v 0.219743 0.368210 0.091021
v 0.237848 0.368210 0.000000
v 0.219743 0.368210 -0.091020
v 0.168184 0.368210 -0.168184
v 0.091021 0.368210 -0.219743
v 0.000000 0.368210 -0.237848
v -0.091021 0.368210 -0.219743
v -0.168184 0.368210 -0.168184
v -0.219743 0.368210 -0.091020
v -0.241928 0.404200 0.000000
v -0.223512 0.404200 0.092582
v -0.171069 0.404200 0.171069
v -0.092582 0.404200 0.223512
v -0.000000 0.404200 0.241928
v 0.092582 0.404200 0.223512
v 0.171069 0.404200 0.171069
v 0.223512 0.404200 0.092582
v 0.241928 0.404200 0.000000
v 0.223512 0.404200 -0.092582
v 0.171069 0.404200 -0.171069
v 0.092582 0.404200 -0.223512
v 0.000000 0.404200 -0.241928
v -0.092582 0.404200 -0.223512
v -0.171069 0.404200 -0.171069
v -0.223512 0.404200 -0.092582
v -0.132485 0.508448 0.000000
v -0.122400 0.508448 0.050700
v -0.093681 0.508448 0.093681
v -0.050700 0.508448 0.122400
v -0.000000 0.508448 0.132485
v 0.050700 0.508448 0.122400
v 0.093681 0.508448 0.093681
v 0.122400 0.508448 0.050700
v 0.132485 0.508448 0.000000
v 0.122400 0.508448 -0.050700
v 0.093681 0.508448 -0.093681
v 0.050700 0.508448 -0.122400
v 0.000000 0.508448 -0.132485
v -0.050700 0.508448 -0.122400
v -0.093681 0.508448 -0.093681
v -0.122400 0.508448 -0.050700
v -0.100043 0.580287 0.000000
v -0.092428 0.580287 0.038285
v -0.070741 0.580287 0.070741
v -0.038285 0.580287 0.092428
v -0.000000 0.580287 0.100043
v 0.038285 0.580287 0.092428
v 0.070741 0.580287 0.070741
v 0.092428 0.580287 0.038285
v 0.100043 0.580287 0.000000
v 0.092428 0.580287 -0.038285
v 0.070741 0.580287 -0.070741
v 0.038285 0.580287 -0.092428
v 0.000000 0.580287 -0.100043
v -0.038285 0.580287 -0.092428
v -0.070741 0.580287 -0.070741
v -0.092428 0.580287 -0.038285
v -0.000000 0.601272 0.000000
v -0.000000 -0.007466 0.000000
v 0.159233 0.382081 -0.159233
v -0.086176 0.382081 0.208048
v 0.086176 0.382081 -0.208048
v -0.000000 0.382081 0.225189
v 0.000000 0.382081 -0.225189
v 0.086176 0.382081 0.208048
v -0.086176 0.382081 -0.208048
v 0.159233 0.382081 0.159233
v -0.159233 0.382081 -0.159233
v 0.208048 0.382081 0.086176
v -0.208048 0.382081 -0.086176
v 0.225189 0.382081 0.000000
v -0.208048 0.382081 0.086176
v 0.208048 0.382081 -0.086176
v -0.159233 0.382081 0.159233
v -0.225189 0.382081 0.000000
v -0.071806 0.382110 0.000000
v -0.050774 0.382110 0.050774
v -0.000000 0.382110 0.071806
v 0.050774 0.382110 0.050774
v 0.071806 0.382110 0.000000
v 0.050774 0.382110 -0.050774
v 0.000000 0.382110 -0.071806
v -0.050774 0.382110 -0.050774
v 0.086176 0.382081 -0.208048
v 0.159233 0.382081 -0.159233
v -0.000000 0.382081 0.225189
v -0.086176 0.382081 0.208048
v 0.000000 0.382081 -0.225189
v 0.086176 0.382081 0.208048
v -0.086176 0.382081 -0.208048
v 0.159233 0.382081 0.159233
v -0.159233 0.382081 -0.159233
v 0.208048 0.382081 0.086176
v -0.208048 0.382081 -0.086176
v 0.225189 0.382081 0.000000
v 0.208048 0.382081 -0.086176
v -0.159233 0.382081 0.159233
v -0.208048 0.382081 0.086176
v -0.225189 0.382081 0.000000
v 0.050511 0.233845 0.000000
v -0.035717 0.233845 0.035717
v 0.035717 0.233845 -0.035716
v -0.000000 0.233845 0.050511
v 0.000000 0.233845 -0.050511
v 0.035717 0.233845 0.035717
v -0.035717 0.233845 -0.035716
v -0.050511 0.233845 0.000000
v -0.046114 0.087016 -0.046114
v -0.065216 0.087016 0.000000
v 0.065215 0.087016 0.000000
v -0.046114 0.087016 0.046114
v 0.046114 0.087016 -0.046114
v -0.000000 0.087016 0.065216
v -0.000000 0.087016 -0.065215
v 0.046114 0.087016 0.046114
v 0.129722 0.544367 0.000000
v 0.119847 0.544367 0.049642
v -0.119847 0.544367 0.049642
v -0.129722 0.544367 0.000000
v -0.119847 0.544367 -0.049642
v 0.119847 0.544367 -0.049642
v -0.091727 0.544367 0.091727
v 0.091727 0.544367 -0.091727
v -0.049642 0.544367 0.119847
v 0.049642 0.544367 -0.119847
v -0.000000 0.544367 0.129722
v 0.000000 0.544367 -0.129722
v 0.049642 0.544367 0.119847
v -0.049642 0.544367 -0.119847
v 0.091727 0.544367 0.091727
v -0.091727 0.544367 -0.091727
vn -0.6965 -0.1725 0.6965
vn -0.0000 -0.7285 0.6850
vn -0.0000 -0.1725 0.9850
vn 0.6965 -0.1725 0.6965
vn 0.4844 -0.7285 0.4844
vn -0.6965 -0.1725 -0.6965
vn -0.0000 -0.7285 -0.6850
vn -0.4844 -0.7285 -0.4844
vn 0.9850 -0.1725 -0.0000
vn 0.6850 -0.7285 -0.0000
vn -0.9850 -0.1725 -0.0000
vn -0.6850 -0.7285 -0.0000
vn -0.4844 -0.7285 0.4844
vn 0.4844 -0.7285 -0.4844
vn -0.9867 -0.1624 -0.0000
vn -0.7070 -0.0172 -0.7070
vn -0.9999 -0.0172 -0.0000
vn -0.0000 0.0780 0.9970
vn -0.0000 0.0780 -0.9970
vn 0.6965 -0.1725 -0.6965
vn -0.0000 -0.1725 -0.9850
vn -0.7049 0.0780 -0.7050
vn 0.0002 -1.0000 -0.0000
vn 0.0001 -1.0000 -0.0001
vn -0.6977 -0.1624 0.6977
vn -0.7070 -0.0172 0.7070
vn -0.7050 0.0780 0.7049
vn -0.9970 0.0780 -0.0000
vn 0.7050 0.0780 -0.7049
vn 0.9970 0.0780 -0.0000
vn 0.9933 0.1153 -0.0000
vn 0.7050 0.0780 0.7050
vn 0.6977 -0.1624 -0.6977
vn 0.9999 -0.0172 -0.0000
vn 0.7070 -0.0172 -0.7070
vn -0.0000 -0.1624 0.9867
vn -0.0000 -0.0172 0.9999
vn -0.0000 -0.1624 -0.9867
vn -0.0000 -0.0172 -0.9999
vn 0.6977 -0.1624 0.6977
vn 0.7070 -0.0172 0.7070
vn -0.6977 -0.1624 -0.6977
vn -0.0000 -0.2130 0.9770
vn -0.6909 -0.2130 -0.6909
vn -0.0000 -0.2130 -0.9770
vn 0.9867 -0.1624 -0.0000
vn 0.6909 -0.2130 0.6909
vn -0.9770 -0.2130 -0.0000
vn 0.6909 -0.2130 -0.6909
vn 0.9770 -0.2130 -0.0000
vn -0.6909 -0.2130 0.6909
vn -0.7024 0.1153 -0.7024
vn -0.0000 -1.0000 -0.0000
vn -0.0000 0.1153 -0.9933
vn -0.0000 0.1153 0.9933
vn 0.7024 0.1153 -0.7024
vn -0.7024 0.1153 0.7024
vn 0.7024 0.1153 0.7024
vn -0.0000 -1.0000 0.0002
vn 0.0001 -1.0000 0.0001
vn 0.3729 -0.9149 0.1545
vn 0.6687 0.3249 0.6688
vn 0.2854 -0.9149 0.2854
vn 0.2854 -0.9149 -0.2854
vn -0.6824 -0.6741 0.2827
vn -0.5223 -0.6741 0.5223
vn -0.1545 -0.9149 0.3729
vn 0.5223 -0.6741 -0.5223
vn 0.2827 -0.6741 -0.6824
vn 0.1545 -0.9149 -0.3730
vn -0.2827 -0.6741 0.6824
vn -0.0000 -0.9149 0.4036
vn -0.0000 -0.6741 -0.7386
vn -0.0000 -0.6741 0.7386
vn 0.1545 -0.9149 0.3729
vn -0.2827 -0.6741 -0.6824
vn -0.1545 -0.9149 -0.3730
vn 0.2827 -0.6741 0.6824
vn -0.5223 -0.6741 -0.5223
vn 0.5223 -0.6741 0.5223
vn -0.6824 -0.6741 -0.2827
vn -0.3729 -0.9149 -0.1545
vn 0.6824 -0.6741 0.2827
vn 0.4037 -0.9149 -0.0000
vn -0.7386 -0.6741 -0.0000
vn 0.6824 -0.6741 -0.2827
vn -0.4037 -0.9149 -0.0000
vn 0.7386 -0.6741 -0.0000
vn -0.8738 0.3249 -0.3619
vn -0.2854 -0.9149 -0.2854
vn 0.9458 0.3249 -0.0000
vn -0.8738 0.3249 0.3619
vn -0.3729 -0.9149 0.1545
vn 0.8738 0.3249 -0.3619
vn 0.3729 -0.9149 -0.1545
vn -0.6688 0.3249 0.6688
vn -0.2854 -0.9149 0.2854
vn 0.6687 0.3249 -0.6688
vn 0.3619 0.3249 -0.8738
vn -0.3619 0.3249 0.8738
vn -0.0000 0.3249 -0.9458
vn -0.0000 -0.9149 -0.4036
vn 0.3619 0.3249 0.8738
vn -0.3619 0.3249 -0.8738
vn -0.6688 0.3249 -0.6687
vn -0.6325 0.4471 -0.6325
vn 0.8264 0.4471 0.3423
vn 0.8738 0.3249 0.3619
vn 0.8945 0.4471 -0.0000
vn -0.8945 0.4471 -0.0000
vn -0.9458 0.3249 -0.0000
vn 0.8264 0.4471 -0.3423
vn -0.8264 0.4471 0.3423
vn 0.6325 0.4471 -0.6325
vn -0.3423 0.4471 0.8264
vn -0.0000 0.4471 0.8945
vn -0.0000 0.3249 0.9458
vn -0.0000 0.4471 -0.8945
vn 0.6325 0.4471 0.6325
vn 0.8613 0.3619 0.3567
vn 0.5461 0.8377 -0.0000
vn 0.5045 0.8377 0.2090
vn -0.8613 0.3619 0.3567
vn -0.5461 0.8377 -0.0000
vn -0.9322 0.3619 -0.0000
vn -0.8613 0.3619 -0.3567
vn -0.5045 0.8377 -0.2090
vn 0.9322 0.3619 -0.0000
vn 0.5045 0.8377 -0.2090
vn -0.6592 0.3619 0.6592
vn -0.5045 0.8377 0.2090
vn 0.8613 0.3619 -0.3567
vn 0.3862 0.8377 -0.3861
vn -0.2090 0.8377 0.5045
vn -0.3861 0.8377 0.3861
vn 0.3567 0.3619 -0.8613
vn 0.6592 0.3619 -0.6592
vn -0.0000 0.3619 0.9322
vn -0.3567 0.3619 0.8613
vn -0.0000 0.8377 -0.5461
vn 0.2090 0.8377 -0.5045
vn 0.3567 0.3619 0.8613
vn -0.0000 0.8377 0.5461
vn -0.3567 0.3619 -0.8613
vn -0.0000 0.3619 -0.9322
vn 0.6592 0.3619 0.6592
vn 0.2090 0.8377 0.5045
vn -0.3862 0.8377 -0.3861
vn -0.2090 0.8377 -0.5045
vn 0.3861 0.8377 0.3861
vn -0.6592 0.3619 -0.6592
vn -0.0000 1.0000 -0.0000
vn -0.9933 0.1153 -0.0000
vn -0.0000 -1.0000 -0.0002
vn -0.0001 -1.0000 -0.0001
vn -0.0001 -1.0000 0.0001
vn -0.0002 -1.0000 -0.0000
vn -0.3423 0.4471 -0.8264
vn 0.3423 0.4471 0.8264
vn 0.3423 0.4471 -0.8264
vn -0.6325 0.4471 0.6325
vn -0.8264 0.4471 -0.3423
vt 0.623750 0.060322
vt 0.747500 0.022537
vt 0.747500 0.060322
vt 0.871250 0.060322
vt 0.871250 0.022537
vt 0.376250 0.060322
vt 0.252500 0.022537
vt 0.376250 0.022537
vt 0.995000 0.060322
vt 0.995000 0.022537
vt 0.499999 0.060322
vt 0.499999 0.022537
vt 0.623750 0.022537
vt 0.128750 0.022537
vt 0.005000 0.060322
vt 0.005000 0.022537
vt 0.499999 0.413213
vt 0.376249 0.334565
vt 0.499999 0.334565
vt 0.747500 0.177640
vt 0.252500 0.177640
vt 0.128750 0.060322
vt 0.252500 0.060322
vt 0.376249 0.177640
vt 0.702838 0.512598
vt 0.706979 0.721361
vt 0.548761 0.615543
vt 0.623750 0.413213
vt 0.623749 0.334565
vt 0.623750 0.177640
vt 0.499999 0.177640
vt 0.128750 0.177640
vt 0.995000 0.177640
vt 0.995000 0.255916
vt 0.871250 0.177640
vt 0.128750 0.413213
vt 0.005000 0.334565
vt 0.128750 0.334565
vt 0.747500 0.413213
vt 0.747500 0.334565
vt 0.252500 0.413213
vt 0.252500 0.334565
vt 0.871250 0.413213
vt 0.871250 0.334565
vt 0.376249 0.413213
vt 0.747500 0.497500
vt 0.376249 0.497500
vt 0.252500 0.497500
vt 0.995000 0.413213
vt 0.871250 0.497500
vt 0.499999 0.497500
vt 0.005000 0.413213
vt 0.128750 0.497500
vt 0.005000 0.497500
vt 0.623749 0.497500
vt 0.376250 0.255916
vt 0.623750 0.002500
vt 0.252500 0.255916
vt 0.747500 0.255916
vt 0.128750 0.255916
vt 0.623750 0.255916
vt 0.005000 0.255916
vt 0.005000 0.177640
vt 0.871250 0.255916
vt 0.987503 0.702823
vt 0.778754 0.706956
vt 0.884573 0.548758
vt 0.292780 0.535536
vt 0.214241 0.570072
vt 0.207465 0.535438
vt 0.464555 0.707437
vt 0.448971 0.616945
vt 0.484796 0.703207
vt 0.035346 0.707086
vt 0.014997 0.796698
vt 0.015022 0.703219
vt 0.464574 0.792813
vt 0.484903 0.796651
vt 0.068113 0.628232
vt 0.050824 0.616880
vt 0.449217 0.883067
vt 0.128579 0.567972
vt 0.116957 0.550871
vt 0.371465 0.932110
vt 0.383116 0.949215
vt 0.203268 0.515199
vt 0.296738 0.985006
vt 0.296638 0.515233
vt 0.207104 0.964675
vt 0.203242 0.985006
vt 0.371576 0.568240
vt 0.382904 0.550952
vt 0.050757 0.883087
vt 0.128213 0.931912
vt 0.116863 0.949217
vt 0.214090 0.930044
vt 0.292523 0.964745
vt 0.351902 0.597535
vt 0.097299 0.851899
vt 0.067867 0.871445
vt 0.402507 0.648140
vt 0.431892 0.628590
vt 0.069925 0.785696
vt 0.035257 0.792491
vt 0.429917 0.714264
vt 0.429947 0.785863
vt 0.069967 0.714077
vt 0.402563 0.852042
vt 0.431904 0.871732
vt 0.148093 0.597389
vt 0.351906 0.902688
vt 0.285720 0.930078
vt 0.265804 0.827146
vt 0.264804 0.672797
vt 0.285801 0.570126
vt 0.293242 0.684374
vt 0.206674 0.815736
vt 0.147924 0.902591
vt 0.315090 0.705947
vt 0.184829 0.794116
vt 0.327023 0.734236
vt 0.172654 0.735004
vt 0.184226 0.706654
vt 0.097416 0.647948
vt 0.315661 0.793377
vt 0.234101 0.672973
vt 0.261247 0.691759
vt 0.272191 0.717332
vt 0.257954 0.711304
vt 0.200793 0.783236
vt 0.227767 0.782826
vt 0.217234 0.799586
vt 0.238668 0.808371
vt 0.241960 0.788849
vt 0.282704 0.700534
vt 0.283035 0.728345
vt 0.191824 0.761703
vt 0.216994 0.771830
vt 0.299173 0.716847
vt 0.288840 0.742665
vt 0.210886 0.742124
vt 0.211348 0.757572
vt 0.308262 0.761392
vt 0.308147 0.738217
vt 0.200347 0.717213
vt 0.191576 0.738498
vt 0.282704 0.772339
vt 0.288723 0.758114
vt 0.216676 0.700799
vt 0.217047 0.727831
vt 0.283194 0.799307
vt 0.299499 0.782844
vt 0.238062 0.691854
vt 0.228127 0.716977
vt 0.257391 0.788973
vt 0.271701 0.783176
vt 0.242484 0.711177
vt 0.261832 0.808271
vt 0.249947 0.750095
vt 0.499999 0.255916
vt 0.128750 0.002500
vt 0.499999 0.002500
vt 0.995000 0.002500
vt 0.376250 0.002500
vt 0.871250 0.002500
vt 0.252500 0.002500
vt 0.747500 0.002500
vt 0.512611 0.797287
vt 0.721378 0.793145
vt 0.615563 0.951356
vt 0.951361 0.884543
vt 0.793146 0.778740
vt 0.797303 0.987497
vt 0.739885 0.699292
vt 0.760248 0.800810
vt 0.995000 0.334565
vt 0.294092 0.815223
vt 0.205806 0.684868
vt 0.327224 0.764937
vt 0.172894 0.765716
vt 0.235107 0.827328
vt 0.615561 0.548745
vt 0.995000 0.497500
vt 0.951361 0.615556
vt 0.800813 0.739864
vt 0.548764 0.884561
vt 0.699313 0.760235
vt 0.987503 0.797275
vt 0.512610 0.702819
vt 0.884572 0.951341
vt 0.797303 0.512603
vt 0.702839 0.987503
s 1
g off
g mushroom2_Mushroom_brown
usemtl Mushroom_brown
f 10/1/1 3/2/2 11/3/3
f 12/4/4 3/2/2 4/5/5
f 16/6/6 7/7/7 8/8/8
f 13/9/9 4/5/5 5/10/10
f 9/11/11 8/8/8 1/12/12
f 10/1/1 1/12/12 2/13/13
f 6/14/14 13/15/9 5/16/10
f 17/17/15 153/18/16 154/19/17
f 12/4/4 160/20/18 11/3/3
f 161/21/19 14/22/20 15/23/21
f 155/24/22 15/23/21 16/6/6
f 146/25/23 26/26/24 144/27/24
f 18/28/25 154/19/17 148/29/26
f 9/11/11 158/30/27 156/31/28
f 10/1/1 160/20/18 158/30/27
f 159/32/29 13/15/9 14/22/20
f 157/33/30 12/4/4 13/9/9
f 34/34/31 162/35/32 157/33/30
f 22/36/33 147/37/34 149/38/35
f 19/39/36 148/29/26 150/40/37
f 23/41/38 149/38/35 151/42/39
f 20/43/40 150/40/37 152/44/41
f 24/45/42 151/42/39 153/18/16
f 20/43/40 125/46/43 19/39/36
f 23/41/38 130/47/44 129/48/45
f 21/49/46 126/50/47 20/43/40
f 24/45/42 123/51/48 130/47/44
f 18/28/25 123/51/48 17/17/15
f 21/52/46 128/53/49 127/54/50
f 19/39/36 124/55/51 18/28/25
f 23/41/38 128/53/49 22/36/33
f 156/31/28 33/56/52 155/24/22
f 156/31/28 16/6/6 9/11/11
f 2/13/13 1/12/12 106/57/53
f 155/24/22 39/58/54 161/21/19
f 162/35/32 38/59/55 160/20/18
f 161/21/19 37/60/56 159/32/29
f 160/20/18 36/61/57 158/30/27
f 159/32/29 34/62/31 157/63/30
f 34/34/31 152/44/41 40/64/58
f 111/65/59 32/66/60 115/67/60
f 48/68/61 63/69/62 47/70/63
f 51/71/64 120/72/65 132/73/66
f 44/74/67 121/75/68 134/76/69
f 52/77/70 132/73/66 131/78/71
f 45/79/72 134/76/69 133/80/73
f 135/81/74 52/77/70 131/78/71
f 46/82/75 133/80/73 136/83/76
f 54/84/77 135/81/74 137/85/78
f 47/70/63 136/83/76 138/86/79
f 139/87/80 54/84/77 137/85/78
f 48/68/61 138/86/79 140/88/81
f 56/89/82 139/87/80 141/90/83
f 49/91/84 140/88/81 142/92/85
f 145/93/86 41/94/87 122/95/88
f 41/94/87 141/90/83 122/95/88
f 120/72/65 49/91/84 142/92/85
f 72/96/89 55/97/90 56/89/82
f 65/98/91 48/68/61 49/91/84
f 58/99/92 41/94/87 42/100/93
f 41/94/87 72/96/89 56/89/82
f 66/101/94 49/91/84 50/102/95
f 59/103/96 42/100/93 43/104/97
f 67/105/98 50/102/95 51/71/64
f 44/74/67 59/103/96 43/104/97
f 68/106/99 51/71/64 52/77/70
f 45/79/72 60/107/100 44/74/67
f 69/108/101 52/77/70 53/109/102
f 62/110/103 45/79/72 46/82/75
f 70/111/104 53/109/102 54/84/77
f 63/69/62 46/82/75 47/70/63
f 71/112/105 54/84/77 55/97/90
f 87/113/106 70/111/104 71/112/105
f 80/114/107 63/69/62 64/115/108
f 72/96/89 87/113/106 71/112/105
f 81/116/109 64/115/108 65/98/91
f 73/117/110 72/96/89 57/118/111
f 82/119/112 65/98/91 66/101/94
f 59/103/96 74/120/113 58/99/92
f 83/121/114 66/101/94 67/105/98
f 76/122/115 59/103/96 60/107/100
f 68/106/99 83/121/114 67/105/98
f 77/123/116 60/107/100 61/124/117
f 85/125/118 68/106/99 69/108/101
f 62/110/103 77/123/116 61/124/117
f 70/111/104 85/125/118 69/108/101
f 79/126/119 62/110/103 63/69/62
f 164/127/120 97/128/121 96/129/122
f 165/130/123 89/131/124 166/132/125
f 167/133/126 89/131/124 104/134/127
f 163/135/128 98/136/129 97/128/121
f 169/137/130 90/138/131 165/130/123
f 168/139/132 99/140/133 98/136/129
f 169/137/130 92/141/134 91/142/135
f 172/143/136 99/140/133 170/144/137
f 173/145/138 92/141/134 171/146/139
f 172/143/136 101/147/140 100/148/141
f 175/149/142 93/150/143 173/145/138
f 176/151/144 101/147/140 174/152/145
f 177/153/146 94/154/147 175/149/142
f 176/151/144 103/155/148 102/156/149
f 177/153/146 96/129/122 95/157/150
f 167/133/126 103/155/148 178/158/151
f 90/138/131 91/142/135 105/159/152
f 91/142/135 92/141/134 105/159/152
f 92/141/134 93/150/143 105/159/152
f 93/150/143 94/154/147 105/159/152
f 94/154/147 95/157/150 105/159/152
f 95/157/150 96/129/122 105/159/152
f 96/129/122 97/128/121 105/159/152
f 97/128/121 98/136/129 105/159/152
f 98/136/129 99/140/133 105/159/152
f 99/140/133 100/148/141 105/159/152
f 100/148/141 101/147/140 105/159/152
f 101/147/140 102/156/149 105/159/152
f 102/156/149 103/155/148 105/159/152
f 103/155/148 104/134/127 105/159/152
f 104/134/127 89/131/124 105/159/152
f 89/131/124 90/138/131 105/159/152
f 35/160/153 153/18/16 33/56/52
f 5/16/10 106/161/53 6/14/14
f 8/8/8 106/162/53 1/12/12
f 4/5/5 106/163/53 5/10/10
f 7/7/7 106/164/53 8/8/8
f 3/2/2 106/165/53 4/5/5
f 6/14/14 106/166/53 7/7/7
f 2/13/13 106/167/53 3/2/2
f 110/168/154 28/169/155 114/170/155
f 111/65/59 107/171/156 30/172/156
f 110/168/154 144/27/24 26/26/24
f 118/173/157 30/172/156 107/171/156
f 115/67/60 25/174/23 146/25/23
f 114/170/155 29/175/157 118/173/157
f 43/104/97 145/93/86 121/75/68
f 158/30/27 35/160/153 156/31/28
f 147/176/34 20/43/40 152/44/41
f 33/56/52 151/42/39 39/58/54
f 40/64/58 150/40/37 38/59/55
f 39/58/54 149/38/35 37/60/56
f 38/59/55 148/29/26 36/61/57
f 37/60/56 147/37/34 34/62/31
f 35/160/153 148/29/26 154/19/17
f 87/113/106 167/133/126 178/158/151
f 79/126/119 164/127/120 177/153/146
f 87/113/106 176/151/144 86/177/158
f 79/126/119 175/149/142 78/178/159
f 86/177/158 174/152/145 85/125/118
f 78/178/159 173/145/138 77/123/116
f 85/125/118 172/143/136 84/179/160
f 76/122/115 173/145/138 171/146/139
f 84/179/160 170/144/137 83/121/114
f 76/122/115 169/137/130 75/180/161
f 83/121/114 168/139/132 82/119/112
f 75/180/161 165/130/123 74/120/113
f 82/119/112 163/135/128 81/116/109
f 73/117/110 167/133/126 88/181/162
f 73/117/110 165/130/123 166/132/125
f 81/116/109 164/127/120 80/114/107
f 15/23/21 6/14/14 7/7/7
f 58/99/92 73/117/110 57/118/111
f 10/1/1 2/13/13 3/2/2
f 12/4/4 11/3/3 3/2/2
f 16/6/6 15/23/21 7/7/7
f 13/9/9 12/4/4 4/5/5
f 9/11/11 16/6/6 8/8/8
f 10/1/1 9/11/11 1/12/12
f 6/14/14 14/22/20 13/15/9
f 17/17/15 24/45/42 153/18/16
f 12/4/4 162/35/32 160/20/18
f 161/21/19 159/32/29 14/22/20
f 155/24/22 161/21/19 15/23/21
f 144/27/24 119/182/53 146/25/23
f 146/25/23 25/174/23 26/26/24
f 18/28/25 17/17/15 154/19/17
f 9/11/11 10/1/1 158/30/27
f 10/1/1 11/3/3 160/20/18
f 159/32/29 157/63/30 13/15/9
f 157/33/30 162/35/32 12/4/4
f 34/34/31 40/64/58 162/35/32
f 22/36/33 21/52/46 147/37/34
f 19/39/36 18/28/25 148/29/26
f 23/41/38 22/36/33 149/38/35
f 20/43/40 19/39/36 150/40/37
f 24/45/42 23/41/38 151/42/39
f 20/43/40 126/50/47 125/46/43
f 23/41/38 24/45/42 130/47/44
f 21/49/46 127/183/50 126/50/47
f 24/45/42 17/17/15 123/51/48
f 18/28/25 124/55/51 123/51/48
f 21/52/46 22/36/33 128/53/49
f 19/39/36 125/46/43 124/55/51
f 23/41/38 129/48/45 128/53/49
f 156/31/28 35/160/153 33/56/52
f 156/31/28 155/24/22 16/6/6
f 155/24/22 33/56/52 39/58/54
f 162/35/32 40/64/58 38/59/55
f 161/21/19 39/58/54 37/60/56
f 160/20/18 38/59/55 36/61/57
f 159/32/29 37/60/56 34/62/31
f 34/34/31 147/176/34 152/44/41
f 115/67/60 113/184/53 111/65/59
f 111/65/59 31/185/59 32/66/60
f 48/68/61 64/115/108 63/69/62
f 51/71/64 50/102/95 120/72/65
f 44/74/67 43/104/97 121/75/68
f 52/77/70 51/71/64 132/73/66
f 45/79/72 44/74/67 134/76/69
f 135/81/74 53/109/102 52/77/70
f 46/82/75 45/79/72 133/80/73
f 54/84/77 53/109/102 135/81/74
f 47/70/63 46/82/75 136/83/76
f 139/87/80 55/97/90 54/84/77
f 48/68/61 47/70/63 138/86/79
f 56/89/82 55/97/90 139/87/80
f 49/91/84 48/68/61 140/88/81
f 145/93/86 42/100/93 41/94/87
f 41/94/87 56/89/82 141/90/83
f 120/72/65 50/102/95 49/91/84
f 72/96/89 71/112/105 55/97/90
f 65/98/91 64/115/108 48/68/61
f 58/99/92 57/118/111 41/94/87
f 41/94/87 57/118/111 72/96/89
f 66/101/94 65/98/91 49/91/84
f 59/103/96 58/99/92 42/100/93
f 67/105/98 66/101/94 50/102/95
f 44/74/67 60/107/100 59/103/96
f 68/106/99 67/105/98 51/71/64
f 45/79/72 61/124/117 60/107/100
f 69/108/101 68/106/99 52/77/70
f 62/110/103 61/124/117 45/79/72
f 70/111/104 69/108/101 53/109/102
f 63/69/62 62/110/103 46/82/75
f 71/112/105 70/111/104 54/84/77
f 87/113/106 86/177/158 70/111/104
f 80/114/107 79/126/119 63/69/62
f 72/96/89 88/181/162 87/113/106
f 81/116/109 80/114/107 64/115/108
f 73/117/110 88/181/162 72/96/89
f 82/119/112 81/116/109 65/98/91
f 59/103/96 75/180/161 74/120/113
f 83/121/114 82/119/112 66/101/94
f 76/122/115 75/180/161 59/103/96
f 68/106/99 84/179/160 83/121/114
f 77/123/116 76/122/115 60/107/100
f 85/125/118 84/179/160 68/106/99
f 62/110/103 78/178/159 77/123/116
f 70/111/104 86/177/158 85/125/118
f 79/126/119 78/178/159 62/110/103
f 164/127/120 163/135/128 97/128/121
f 165/130/123 90/138/131 89/131/124
f 167/133/126 166/132/125 89/131/124
f 163/135/128 168/139/132 98/136/129
f 169/137/130 91/142/135 90/138/131
f 168/139/132 170/144/137 99/140/133
f 169/137/130 171/146/139 92/141/134
f 172/143/136 100/148/141 99/140/133
f 173/145/138 93/150/143 92/141/134
f 172/143/136 174/152/145 101/147/140
f 175/149/142 94/154/147 93/150/143
f 176/151/144 102/156/149 101/147/140
f 177/153/146 95/157/150 94/154/147
f 176/151/144 178/158/151 103/155/148
f 177/153/146 164/127/120 96/129/122
f 167/133/126 104/134/127 103/155/148
f 35/160/153 154/19/17 153/18/16
f 114/170/155 112/186/53 110/168/154
f 110/168/154 27/187/154 28/169/155
f 30/172/156 31/185/59 111/65/59
f 111/65/59 109/188/53 107/171/156
f 26/26/24 27/187/154 110/168/154
f 110/168/154 108/189/53 144/27/24
f 107/171/156 143/190/53 118/173/157
f 118/173/157 29/175/157 30/172/156
f 146/25/23 117/191/53 115/67/60
f 115/67/60 32/66/60 25/174/23
f 118/173/157 116/192/53 114/170/155
f 114/170/155 28/169/155 29/175/157
f 43/104/97 42/100/93 145/93/86
f 158/30/27 36/61/57 35/160/153
f 147/176/34 21/49/46 20/43/40
f 33/56/52 153/18/16 151/42/39
f 40/64/58 152/44/41 150/40/37
f 39/58/54 151/42/39 149/38/35
f 38/59/55 150/40/37 148/29/26
f 37/60/56 149/38/35 147/37/34
f 35/160/153 36/61/57 148/29/26
f 87/113/106 88/181/162 167/133/126
f 79/126/119 80/114/107 164/127/120
f 87/113/106 178/158/151 176/151/144
f 79/126/119 177/153/146 175/149/142
f 86/177/158 176/151/144 174/152/145
f 78/178/159 175/149/142 173/145/138
f 85/125/118 174/152/145 172/143/136
f 76/122/115 77/123/116 173/145/138
f 84/179/160 172/143/136 170/144/137
f 76/122/115 171/146/139 169/137/130
f 83/121/114 170/144/137 168/139/132
f 75/180/161 169/137/130 165/130/123
f 82/119/112 168/139/132 163/135/128
f 73/117/110 166/132/125 167/133/126
f 73/117/110 74/120/113 165/130/123
f 81/116/109 163/135/128 164/127/120
f 15/23/21 14/22/20 6/14/14
f 58/99/92 74/120/113 73/117/110
