# Blender 5.1.1
# www.blender.org
mtllib mushrooms1.mtl
g mushroom1_Circle.003
v -0.077261 0.000000 0.000000
v -0.054632 0.000000 0.054632
v -0.000000 0.000000 0.077261
v 0.054632 0.000000 0.054632
v 0.077261 0.000000 0.000000
v 0.054632 0.000000 -0.054632
v -0.000000 0.000000 -0.077261
v -0.054632 0.000000 -0.054632
v -0.096486 0.022610 0.000000
v -0.068226 0.022610 0.068226
v -0.000000 0.022610 0.096486
v 0.068226 0.022610 0.068226
v 0.096486 0.022610 0.000000
v 0.068226 0.022610 -0.068226
v 0.000000 0.022610 -0.096486
v -0.068226 0.022610 -0.068226
v -0.102113 0.052755 0.000000
v -0.072205 0.052755 0.072205
v -0.000000 0.052755 0.102113
v 0.072205 0.052755 0.072205
v 0.102113 0.052755 0.000000
v 0.072205 0.052755 -0.072205
v 0.000000 0.052755 -0.102113
v -0.072205 0.052755 -0.072204
v -0.064157 0.361752 0.000000
v -0.045366 0.361752 0.045366
v -0.000000 0.361752 0.064157
v 0.045366 0.361752 0.045366
v 0.064157 0.361752 0.000000
v 0.045366 0.361752 -0.045366
v -0.000000 0.361752 -0.064157
v -0.045366 0.361752 -0.045366
v -0.068381 0.175600 -0.068381
v 0.096705 0.175600 0.000000
v -0.096705 0.175600 0.000000
v -0.068381 0.175600 0.068381
v 0.068381 0.175600 -0.068381
v -0.000000 0.175600 0.096705
v 0.000000 0.175600 -0.096705
v 0.068381 0.175600 0.068381
v -0.312093 0.343513 0.000000
v -0.288337 0.343513 0.119433
v -0.220683 0.343513 0.220683
v -0.119433 0.343513 0.288337
v -0.000000 0.343513 0.312093
v 0.119433 0.343513 0.288337
v 0.220683 0.343513 0.220683
v 0.288337 0.343513 0.119433
v 0.312093 0.343513 0.000000
v 0.288337 0.343513 -0.119433
v 0.220684 0.343513 -0.220683
v 0.119433 0.343513 -0.288337
v 0.000000 0.343513 -0.312093
v -0.119433 0.343513 -0.288337
v -0.220684 0.343513 -0.220683
v -0.288337 0.343513 -0.119433
v -0.332732 0.401714 -0.000000
v -0.307404 0.401714 0.127331
v -0.235277 0.401714 0.235277
v -0.127331 0.401714 0.307404
v -0.000000 0.401714 0.332732
v 0.127331 0.401714 0.307404
v 0.235277 0.401714 0.235277
v 0.307404 0.401714 0.127331
v 0.332732 0.401714 0.000000
v 0.307404 0.401714 -0.127331
v 0.235277 0.401714 -0.235277
v 0.127331 0.401714 -0.307404
v 0.000000 0.401714 -0.332732
v -0.127331 0.401714 -0.307404
v -0.235277 0.401714 -0.235277
v -0.307404 0.401714 -0.127331
v -0.292850 0.492079 0.000000
v -0.270558 0.492079 0.112069
v -0.207076 0.492079 0.207076
v -0.112069 0.492079 0.270558
v -0.000000 0.492079 0.292850
v 0.112069 0.492079 0.270558
v 0.207076 0.492079 0.207076
v 0.270558 0.492079 0.112069
v 0.292850 0.492079 0.000000
v 0.270558 0.492079 -0.112069
v 0.207076 0.492079 -0.207076
v 0.112069 0.492079 -0.270558
v 0.000000 0.492079 -0.292850
v -0.112069 0.492079 -0.270558
v -0.207076 0.492079 -0.207076
v -0.270558 0.492079 -0.112069
v -0.212227 0.554570 0.000000
v -0.196072 0.554570 0.081216
v -0.150067 0.554570 0.150067
v -0.081216 0.554570 0.196072
v -0.000000 0.554570 0.212227
v 0.081216 0.554570 0.196072
v 0.150067 0.554570 0.150067
v 0.196072 0.554570 0.081216
v 0.212227 0.554570 0.000000
v 0.196072 0.554570 -0.081216
v 0.150067 0.554570 -0.150067
v 0.081216 0.554570 -0.196072
v 0.000000 0.554570 -0.212227
v -0.081216 0.554570 -0.196072
v -0.150067 0.554570 -0.150067
v -0.196072 0.554570 -0.081215
v -0.000000 0.601313 0.000000
v -0.000000 -0.009796 0.000000
v 0.208938 0.361714 -0.208938
v -0.113076 0.361714 0.272991
v 0.113076 0.361714 -0.272990
v -0.000000 0.361714 0.295483
v 0.000000 0.361714 -0.295483
v 0.113076 0.361714 0.272991
v -0.113076 0.361714 -0.272990
v 0.208938 0.361714 0.208938
v -0.208938 0.361714 -0.208938
v 0.272991 0.361714 0.113076
v -0.272991 0.361714 -0.113076
v 0.295483 0.361714 0.000000
v -0.272991 0.361714 0.113076
v 0.272991 0.361714 -0.113076
v -0.208938 0.361714 0.208938
v -0.295483 0.361714 0.000000
v -0.064157 0.361752 0.000000
v -0.045366 0.361752 0.045366
v -0.000000 0.361752 0.064157
v 0.045366 0.361752 0.045366
v 0.064157 0.361752 0.000000
v 0.045366 0.361752 -0.045366
v -0.000000 0.361752 -0.064157
v -0.045366 0.361752 -0.045366
v 0.113076 0.361714 -0.272990
v 0.208938 0.361714 -0.208938
v -0.000000 0.361714 0.295483
v -0.113076 0.361714 0.272991
v 0.000000 0.361714 -0.295483
v 0.113076 0.361714 0.272991
v -0.113076 0.361714 -0.272990
v 0.208938 0.361714 0.208938
v -0.208938 0.361714 -0.208938
v 0.272991 0.361714 0.113076
v -0.272991 0.361714 -0.113076
v 0.295483 0.361714 0.000000
v 0.272991 0.361714 -0.113076
v -0.208938 0.361714 0.208938
v -0.272991 0.361714 0.113076
v -0.295483 0.361714 0.000000
vn -0.6458 -0.4074 0.6458
vn -0.3816 -0.8419 0.3816
vn -0.0000 -0.8419 0.5397
vn -0.0000 -0.4074 0.9132
vn 0.3816 -0.8419 0.3816
vn 0.6458 -0.4074 0.6458
vn -0.3816 -0.8419 -0.3816
vn -0.6458 -0.4074 -0.6458
vn -0.0000 -0.4074 -0.9132
vn -0.0000 -0.8419 -0.5397
vn 0.5397 -0.8419 -0.0000
vn 0.9132 -0.4074 -0.0000
vn -0.5397 -0.8419 -0.0000
vn -0.9132 -0.4074 -0.0000
vn 0.3816 -0.8419 -0.3816
vn 0.6458 -0.4074 -0.6458
vn 0.7055 -0.0683 -0.7055
vn 0.9977 -0.0683 -0.0000
vn -0.0000 -0.0683 0.9977
vn -0.7055 -0.0683 0.7055
vn -0.0000 -0.0683 -0.9977
vn 0.7055 -0.0683 0.7055
vn -0.7055 -0.0683 -0.7055
vn -0.9977 -0.0683 -0.0000
vn 0.0002 -1.0000 -0.0001
vn 0.0002 -1.0000 -0.0000
vn 0.0001 -1.0000 -0.0001
vn 0.9943 0.1067 -0.0000
vn 0.7031 0.1067 0.7031
vn -0.7031 0.1067 0.7031
vn -0.9943 0.1067 -0.0000
vn -0.0000 0.1067 -0.9943
vn -0.0000 0.1722 -0.9851
vn 0.6965 0.1722 -0.6965
vn 0.7031 0.1067 -0.7031
vn 0.6965 0.1722 0.6965
vn -0.0000 0.1722 0.9851
vn -0.0000 0.1067 0.9943
vn -0.6965 0.1722 -0.6965
vn -0.7031 0.1067 -0.7031
vn 0.9851 0.1722 -0.0000
vn -0.9851 0.1722 -0.0000
vn -0.6965 0.1722 0.6965
vn -0.0000 -1.0000 -0.0000
vn 0.0001 -1.0000 0.0002
vn -0.0000 -1.0000 0.0002
vn 0.0001 -1.0000 0.0001
vn -0.5223 -0.6741 0.5223
vn 0.2093 -0.9552 -0.2093
vn 0.2735 -0.9552 -0.1133
vn -0.6824 -0.6741 0.2827
vn 0.2827 -0.6741 -0.6824
vn -0.1133 -0.9552 0.2735
vn -0.2093 -0.9552 0.2093
vn 0.5223 -0.6741 -0.5223
vn -0.2827 -0.6741 0.6824
vn 0.1133 -0.9552 -0.2735
vn -0.0000 -0.6741 -0.7386
vn -0.0000 -0.9552 0.2960
vn -0.0000 -0.6741 0.7386
vn -0.0000 -0.9552 -0.2960
vn -0.2827 -0.6741 -0.6824
vn 0.1133 -0.9552 0.2735
vn 0.2827 -0.6741 0.6824
vn -0.1133 -0.9552 -0.2735
vn -0.5223 -0.6741 -0.5223
vn 0.2093 -0.9552 0.2093
vn 0.5223 -0.6741 0.5223
vn -0.2093 -0.9552 -0.2093
vn -0.6824 -0.6741 -0.2827
vn 0.2735 -0.9552 0.1133
vn 0.6824 -0.6741 0.2827
vn -0.2735 -0.9552 -0.1133
vn -0.7386 -0.6741 -0.0000
vn 0.2960 -0.9552 -0.0000
vn 0.6824 -0.6741 -0.2827
vn -0.2735 -0.9552 0.1133
vn -0.2960 -0.9552 -0.0000
vn 0.7386 -0.6741 -0.0000
vn -0.9994 0.0358 -0.0000
vn -0.9233 0.0358 -0.3824
vn 0.9233 0.0358 -0.3824
vn 0.9994 0.0358 -0.0000
vn -0.7067 0.0358 0.7067
vn -0.9233 0.0358 0.3824
vn 0.7067 0.0358 -0.7067
vn -0.3824 0.0358 0.9233
vn 0.3824 0.0358 -0.9233
vn -0.0000 0.0358 0.9994
vn -0.0000 0.0358 -0.9994
vn 0.3824 0.0358 0.9233
vn -0.3824 0.0358 -0.9233
vn 0.7067 0.0358 0.7067
vn -0.7067 0.0358 -0.7067
vn 0.9233 0.0358 0.3824
vn -0.3057 0.6015 0.7381
vn -0.5649 0.6015 0.5649
vn 0.3057 0.6015 -0.7381
vn 0.5649 0.6015 -0.5649
vn -0.0000 0.6015 0.7989
vn -0.0000 0.6015 -0.7989
vn 0.3057 0.6015 0.7381
vn -0.3057 0.6015 -0.7381
vn 0.5649 0.6015 0.5649
vn -0.5649 0.6015 -0.5649
vn 0.7381 0.6015 0.3057
vn -0.7381 0.6015 -0.3057
vn 0.7989 0.6015 -0.0000
vn -0.7381 0.6015 0.3057
vn -0.7989 0.6015 -0.0000
vn 0.7381 0.6015 -0.3057
vn 0.4462 0.8950 -0.0000
vn 0.4122 0.8950 0.1707
vn -0.4122 0.8950 0.1707
vn -0.4462 0.8950 -0.0000
vn -0.4122 0.8950 -0.1707
vn 0.4122 0.8950 -0.1707
vn -0.3155 0.8950 0.3155
vn 0.3155 0.8950 -0.3155
vn -0.1707 0.8950 0.4122
vn 0.1707 0.8950 -0.4122
vn -0.0000 0.8950 0.4462
vn -0.0000 0.8950 -0.4462
vn 0.1707 0.8950 0.4122
vn -0.1707 0.8950 -0.4122
vn 0.3155 0.8950 0.3155
vn -0.3155 0.8950 -0.3155
vn -0.0000 1.0000 -0.0000
vn -0.0001 -1.0000 -0.0002
vn -0.0000 -1.0000 -0.0002
vn -0.0001 -1.0000 -0.0001
vn -0.0001 -1.0000 0.0002
vn -0.0001 -1.0000 0.0001
vn 0.0001 -1.0000 -0.0002
vn -0.0002 -1.0000 0.0001
vn -0.0002 -1.0000 -0.0000
vn 0.0002 -1.0000 0.0001
vn -0.0002 -1.0000 -0.0001
vt 0.623750 0.060322
vt 0.623750 0.022537
vt 0.747500 0.022537
vt 0.747500 0.060322
vt 0.871250 0.022537
vt 0.871250 0.060322
vt 0.376250 0.022537
vt 0.376250 0.060322
vt 0.252500 0.060322
vt 0.252500 0.022537
vt 0.995000 0.022537
vt 0.995000 0.060322
vt 0.499999 0.022537
vt 0.499999 0.060322
vt 0.128750 0.022537
vt 0.128750 0.060322
vt 0.005000 0.060322
vt 0.005000 0.022537
vt 0.128750 0.099365
vt 0.005000 0.099365
vt 0.747500 0.099365
vt 0.623750 0.099365
vt 0.252500 0.099365
vt 0.871250 0.099365
vt 0.376250 0.099365
vt 0.995000 0.099365
vt 0.499999 0.099365
vt 0.615561 0.548745
vt 0.702838 0.512598
vt 0.739885 0.699292
vt 0.706979 0.721361
vt 0.548761 0.615543
vt 0.995000 0.255916
vt 0.871250 0.255916
vt 0.623750 0.255916
vt 0.499999 0.255916
vt 0.252500 0.255916
vt 0.252500 0.497500
vt 0.128750 0.497500
vt 0.128750 0.255916
vt 0.871250 0.497500
vt 0.747500 0.497500
vt 0.747500 0.255916
vt 0.376249 0.497500
vt 0.376250 0.255916
vt 0.995000 0.497500
vt 0.499999 0.497500
vt 0.005000 0.497500
vt 0.005000 0.255916
vt 0.623749 0.497500
vt 0.623750 0.002500
vt 0.951361 0.615556
vt 0.987503 0.702823
vt 0.800813 0.739864
vt 0.778754 0.706956
vt 0.884573 0.548758
vt 0.048621 0.615567
vt 0.066089 0.627016
vt 0.033011 0.706716
vt 0.012495 0.702822
vt 0.384385 0.951338
vt 0.372626 0.934072
vt 0.433692 0.873084
vt 0.451160 0.884533
vt 0.115397 0.548763
vt 0.127156 0.566028
vt 0.297104 0.987503
vt 0.292851 0.967049
vt 0.202678 0.512598
vt 0.206930 0.533051
vt 0.202626 0.987477
vt 0.206529 0.966956
vt 0.297156 0.512623
vt 0.293253 0.533144
vt 0.115374 0.951297
vt 0.126831 0.933835
vt 0.384408 0.548803
vt 0.372951 0.566265
vt 0.048617 0.884498
vt 0.065881 0.872750
vt 0.451165 0.615602
vt 0.433901 0.627351
vt 0.012495 0.797251
vt 0.032939 0.793001
vt 0.487287 0.797278
vt 0.466771 0.793384
vt 0.466842 0.707100
vt 0.487287 0.702849
vt 0.426004 0.715304
vt 0.399307 0.650555
vt 0.073883 0.714760
vt 0.073778 0.784796
vt 0.399005 0.850012
vt 0.425899 0.785340
vt 0.100777 0.650088
vt 0.349406 0.899476
vt 0.150376 0.600624
vt 0.284644 0.926199
vt 0.215137 0.573901
vt 0.214586 0.926076
vt 0.285195 0.574024
vt 0.149917 0.899156
vt 0.349865 0.600945
vt 0.100475 0.849545
vt 0.321200 0.859169
vt 0.357525 0.823570
vt 0.178581 0.640931
vt 0.142256 0.676530
vt 0.274015 0.878157
vt 0.225767 0.621943
vt 0.223154 0.877632
vt 0.276628 0.622468
vt 0.176368 0.857683
vt 0.323413 0.642417
vt 0.140779 0.821352
vt 0.359002 0.678748
vt 0.121801 0.774170
vt 0.377463 0.776784
vt 0.377981 0.725930
vt 0.122319 0.723317
vt 0.164329 0.765460
vt 0.176739 0.797031
vt 0.334837 0.768557
vt 0.335453 0.734640
vt 0.323043 0.703069
vt 0.164944 0.731543
vt 0.321290 0.799658
vt 0.178491 0.700442
vt 0.296873 0.823208
vt 0.202908 0.676893
vt 0.265303 0.835619
vt 0.234479 0.664481
vt 0.231385 0.835002
vt 0.268397 0.665098
vt 0.200285 0.821451
vt 0.299496 0.678649
vt 0.249891 0.750050
vt 0.128750 0.002500
vt 0.499999 0.002500
vt 0.995000 0.002500
vt 0.376250 0.002500
vt 0.871250 0.002500
vt 0.252500 0.002500
vt 0.747500 0.002500
vt 0.548764 0.884561
vt 0.512611 0.797287
vt 0.699313 0.760235
vt 0.721378 0.793145
vt 0.615563 0.951356
vt 0.987503 0.797275
vt 0.951361 0.884543
vt 0.793146 0.778740
vt 0.512610 0.702819
vt 0.884572 0.951341
vt 0.797303 0.987497
vt 0.760248 0.800810
vt 0.797303 0.512603
vt 0.702839 0.987503
s 1
g off
g mushroom1_Mushroom_purple
usemtl Mushroom_purple
f 10/1/1 2/2/2 3/3/3 11/4/4
f 4/5/5 12/6/6 11/4/4 3/3/3
f 8/7/7 16/8/8 15/9/9 7/10/10
f 5/11/11 13/12/12 12/6/6 4/5/5
f 1/13/13 9/14/14 16/8/8 8/7/7
f 2/2/2 10/1/1 9/14/14 1/13/13
f 6/15/15 14/16/16 13/17/12 5/18/11
f 13/17/12 14/16/16 22/19/17 21/20/18
f 10/1/1 11/4/4 19/21/19 18/22/20
f 14/16/16 15/9/9 23/23/21 22/19/17
f 11/4/4 12/6/6 20/24/22 19/21/19
f 15/9/9 16/8/8 24/25/23 23/23/21
f 12/6/6 13/12/12 21/26/18 20/24/22
f 16/8/8 9/14/14 17/27/24 24/25/23
f 9/14/14 10/1/1 18/22/20 17/27/24
f 119/28/25 146/29/26 25/30/26 26/31/27 144/32/27
f 20/24/22 21/26/18 34/33/28 40/34/29
f 17/27/24 18/22/20 36/35/30 35/36/31
f 39/37/32 129/38/33 128/39/34 37/40/35
f 40/34/29 126/41/36 125/42/37 38/43/38
f 130/44/39 129/38/33 39/37/32 33/45/40
f 40/34/29 34/33/28 127/46/41 126/41/36
f 123/47/42 130/44/39 33/45/40 35/36/31
f 37/40/35 128/39/34 127/48/41 34/49/28
f 38/43/38 125/42/37 124/50/43 36/35/30
f 24/25/23 17/27/24 35/36/31 33/45/40
f 2/2/2 1/13/13 106/51/44
f 23/23/21 24/25/23 33/45/40 39/37/32
f 19/21/19 20/24/22 40/34/29 38/43/38
f 22/19/17 23/23/21 39/37/32 37/40/35
f 18/22/20 19/21/19 38/43/38 36/35/30
f 21/20/18 22/19/17 37/40/35 34/49/28
f 113/52/45 111/53/46 31/54/46 32/55/47 115/56/47
f 132/57/48 51/58/49 50/59/50 120/60/51
f 134/61/52 44/62/53 43/63/54 121/64/55
f 131/65/56 52/66/57 51/58/49 132/57/48
f 133/67/58 45/68/59 44/62/53 134/61/52
f 135/69/60 53/70/61 52/66/57 131/65/56
f 136/71/62 46/72/63 45/68/59 133/67/58
f 137/73/64 54/74/65 53/70/61 135/69/60
f 138/75/66 47/76/67 46/72/63 136/71/62
f 139/77/68 55/78/69 54/74/65 137/73/64
f 140/79/70 48/80/71 47/76/67 138/75/66
f 141/81/72 56/82/73 55/78/69 139/77/68
f 142/83/74 49/84/75 48/80/71 140/79/70
f 145/85/76 42/86/77 41/87/78 122/88/79
f 122/88/79 41/87/78 56/82/73 141/81/72
f 120/60/51 50/59/50 49/84/75 142/83/74
f 41/87/78 57/89/80 72/90/81 56/82/73
f 50/59/50 66/91/82 65/92/83 49/84/75
f 43/63/54 59/93/84 58/94/85 42/86/77
f 51/58/49 67/95/86 66/91/82 50/59/50
f 44/62/53 60/96/87 59/93/84 43/63/54
f 52/66/57 68/97/88 67/95/86 51/58/49
f 45/68/59 61/98/89 60/96/87 44/62/53
f 53/70/61 69/99/90 68/97/88 52/66/57
f 46/72/63 62/100/91 61/98/89 45/68/59
f 54/74/65 70/101/92 69/99/90 53/70/61
f 47/76/67 63/102/93 62/100/91 46/72/63
f 55/78/69 71/103/94 70/101/92 54/74/65
f 48/80/71 64/104/95 63/102/93 47/76/67
f 56/82/73 72/90/81 71/103/94 55/78/69
f 49/84/75 65/92/83 64/104/95 48/80/71
f 59/93/84 60/96/87 76/105/96 75/106/97
f 67/95/86 68/97/88 84/107/98 83/108/99
f 60/96/87 61/98/89 77/109/100 76/105/96
f 68/97/88 69/99/90 85/110/101 84/107/98
f 61/98/89 62/100/91 78/111/102 77/109/100
f 69/99/90 70/101/92 86/112/103 85/110/101
f 62/100/91 63/102/93 79/113/104 78/111/102
f 70/101/92 71/103/94 87/114/105 86/112/103
f 63/102/93 64/104/95 80/115/106 79/113/104
f 71/103/94 72/90/81 88/116/107 87/114/105
f 64/104/95 65/92/83 81/117/108 80/115/106
f 57/89/80 58/94/85 74/118/109 73/119/110
f 72/90/81 57/89/80 73/119/110 88/116/107
f 65/92/83 66/91/82 82/120/111 81/117/108
f 58/94/85 59/93/84 75/106/97 74/118/109
f 66/91/82 67/95/86 83/108/99 82/120/111
f 80/115/106 81/117/108 97/121/112 96/122/113
f 73/119/110 74/118/109 90/123/114 89/124/115
f 88/116/107 73/119/110 89/124/115 104/125/116
f 81/117/108 82/120/111 98/126/117 97/121/112
f 74/118/109 75/106/97 91/127/118 90/123/114
f 82/120/111 83/108/99 99/128/119 98/126/117
f 75/106/97 76/105/96 92/129/120 91/127/118
f 83/108/99 84/107/98 100/130/121 99/128/119
f 76/105/96 77/109/100 93/131/122 92/129/120
f 84/107/98 85/110/101 101/132/123 100/130/121
f 77/109/100 78/111/102 94/133/124 93/131/122
f 85/110/101 86/112/103 102/134/125 101/132/123
f 78/111/102 79/113/104 95/135/126 94/133/124
f 86/112/103 87/114/105 103/136/127 102/134/125
f 79/113/104 80/115/106 96/122/113 95/135/126
f 87/114/105 88/116/107 104/125/116 103/136/127
f 90/123/114 91/127/118 105/137/128
f 91/127/118 92/129/120 105/137/128
f 92/129/120 93/131/122 105/137/128
f 93/131/122 94/133/124 105/137/128
f 94/133/124 95/135/126 105/137/128
f 95/135/126 96/122/113 105/137/128
f 96/122/113 97/121/112 105/137/128
f 97/121/112 98/126/117 105/137/128
f 98/126/117 99/128/119 105/137/128
f 99/128/119 100/130/121 105/137/128
f 100/130/121 101/132/123 105/137/128
f 101/132/123 102/134/125 105/137/128
f 102/134/125 103/136/127 105/137/128
f 103/136/127 104/125/116 105/137/128
f 104/125/116 89/124/115 105/137/128
f 89/124/115 90/123/114 105/137/128
f 5/18/11 106/138/44 6/15/15
f 8/7/7 106/139/44 1/13/13
f 4/5/5 106/140/44 5/11/11
f 7/10/10 106/141/44 8/7/7
f 3/3/3 106/142/44 4/5/5
f 6/15/15 106/143/44 7/10/10
f 2/2/2 106/144/44 3/3/3
f 112/145/129 110/146/130 27/147/130 28/148/131 114/149/131
f 31/54/46 111/53/46 109/150/132 107/151/133 30/152/133
f 27/147/130 110/146/130 108/153/134 144/32/27 26/31/27
f 143/154/135 118/155/136 29/156/136 30/152/133 107/151/133
f 117/157/137 115/56/47 32/55/47 25/30/26 146/29/26
f 116/158/138 114/149/131 28/148/131 29/156/136 118/155/136
f 7/10/10 15/9/9 14/16/16 6/15/15
f 36/35/30 124/50/43 123/47/42 35/36/31
f 121/64/55 43/63/54 42/86/77 145/85/76
f 42/86/77 58/94/85 57/89/80 41/87/78
