# Blender 5.1.1
# www.blender.org
mtllib polaroid.mtl
g polaroid_Mesh
v -0.151746 -0.333208 0.253872
v -0.164715 0.332625 0.246444
v 0.164715 -0.332625 -0.246444
v 0.151746 0.333208 -0.253872
v 0.138494 -0.333320 -0.263030
v -0.177967 -0.333903 0.237286
v -0.190935 0.331929 0.229859
v 0.125526 0.332512 -0.270458
vn 0.8449 0.0224 0.5344
vn -0.8449 -0.0224 -0.5344
vn -0.5346 -0.0010 0.8451
vn -0.0195 0.9997 -0.0112
vn 0.0195 -0.9997 0.0112
vn 0.5346 0.0010 -0.8451
vt 0.000000 1.000000
vt 1.000000 0.000000
vt 0.000000 0.000000
vt 1.000000 1.000000
s 0
g off
g polaroid_Polaroid
usemtl Polaroid
f 3/1/1 2/2/1 1/3/1
f 7/2/2 5/1/2 6/3/2
f 2/2/3 6/3/3 1/3/3
f 4/4/4 7/2/4 2/2/4
f 1/3/5 5/1/5 3/1/5
f 3/1/6 8/4/6 4/4/6
f 3/1/1 4/4/1 2/2/1
f 7/2/2 8/4/2 5/1/2
f 2/2/3 7/2/3 6/3/3
f 4/4/4 8/4/4 7/2/4
f 1/3/5 6/3/5 5/1/5
f 3/1/6 5/1/6 8/4/6
