# Blender 5.1.1
# www.blender.org
mtllib polaroid.mtl
g polaroid_Plane.002
v -0.333000 0.000000 0.296000
v 0.333000 0.000000 0.296000
v -0.333000 0.000000 -0.296000
v 0.333000 0.000000 -0.296000
v -0.333000 0.031034 -0.296000
v -0.333000 0.031034 0.296000
v 0.333000 0.031034 0.296000
v 0.333000 0.031034 -0.296000
vn -0.0000 -1.0000 -0.0000
vn -0.0000 1.0000 -0.0000
vn -0.0000 -0.0000 1.0000
vn 1.0000 -0.0000 -0.0000
vn -1.0000 -0.0000 -0.0000
vn -0.0000 -0.0000 -1.0000
vt 0.000000 0.000000
vt 0.000000 1.000000
vt 1.000000 1.000000
vt 1.000000 0.000000
s 0
g off
g polaroid_Polaroid
usemtl Polaroid
f 1/1/1 3/2/1 4/3/1 2/4/1
f 6/1/2 7/4/2 8/3/2 5/2/2
f 1/1/3 2/4/3 7/4/3 6/1/3
f 2/4/4 4/3/4 8/3/4 7/4/4
f 3/2/5 1/1/5 6/1/5 5/2/5
f 4/3/6 3/2/6 5/2/6 8/3/6
